<?xml version="1.0" encoding="utf-8"?>
<!-- Generator: Adobe Illustrator 18.0.0, SVG Export Plug-In . SVG Version: 6.00 Build 0)  -->
<!DOCTYPE svg PUBLIC "-//W3C//DTD SVG 1.1//EN" "http://www.w3.org/Graphics/SVG/1.1/DTD/svg11.dtd">
<svg version="1.1" id="Layer_1" xmlns="http://www.w3.org/2000/svg" xmlns:xlink="http://www.w3.org/1999/xlink" x="0px" y="0px"
	 viewBox="0 0 512 512" enable-background="new 0 0 512 512" xml:space="preserve">
<g>
	<g>
		<path d="M0.6,426.6c0-113.7,0-227.4,0-341.1c0.6-3.2,1-6.3,1.7-9.5c8.6-37.7,31.5-61.9,68.6-72.6c4.8-1.4,9.8-2,14.7-2.9
			c113.7,0,227.4,0,341.1,0c3.1,0.6,6.3,1,9.4,1.7c37.7,8.6,61.9,31.5,72.6,68.6c1.4,4.8,2,9.8,2.9,14.7c0,113.7,0,227.4,0,341.1
			c-0.6,3.2-1,6.3-1.7,9.5c-8.6,37.7-31.5,61.9-68.6,72.6c-4.8,1.4-9.8,2-14.7,2.9c-113.7,0-227.4,0-341.1,0c-3.1-0.6-6.3-1-9.4-1.7
			c-37.7-8.6-61.9-31.5-72.6-68.6C2.1,436.6,1.5,431.5,0.6,426.6z M233,408.4c6.2-35.2,12.4-69.8,18.4-104.5
			c0.4-2.3,1.3-2.7,3.3-2.7c17.5,0.1,35,0,52.5,0c18.5,0.1,36.6-2.2,54.1-8.1c56.9-18.9,80.5-65.4,79.4-110.6
			c-0.7-31-15.3-53.8-43.5-67.5c-16.3-7.9-33.8-10.7-51.7-10.8c-39.1-0.1-78.1-0.1-117.2,0c-3.7,0-7.4,0.4-11,0.8
			c-3.7,0.4-7.4,0.9-11.2,1.3c-6.3,0.7-12.7,1.2-19,1.9c-7.9,0.8-15.9,1.6-23.8,2.4c-4.8,0.5-9.5,0.9-14.3,1.3
			c-8,0.8-16.1,1.7-24.1,2.5c-2,0.2-4,0.4-6,0.5c0,0.2,0,0.5,0,0.7c31.4,5.5,62.8,10.9,94.2,16.4c0,0.2,0,0.4-0.1,0.6
			c-32.9,3.3-65.7,6.6-98.6,9.8c0,0.2,0,0.5,0,0.7c31.6,5.5,63.1,10.9,94.7,16.4c0,0.2,0,0.3,0,0.5c-33.2,3.3-66.4,6.6-99.6,9.9
			c0,0.2,0,0.5,0,0.7c31.5,5.5,62.9,10.9,94.4,16.4c0,0.2,0,0.4,0,0.6c-33.1,3.3-66.2,6.6-99.3,9.9c0,0.2,0,0.5,0,0.7
			c31.3,5.4,62.6,10.9,93.9,16.3c0,0.2,0,0.5,0,0.7c-32.9,3.3-65.9,6.5-98.8,9.8c0,0.2,0,0.4,0,0.7c31.2,5.4,62.5,10.8,93.7,16.3
			c0,0.3,0,0.5,0,0.8c-32.8,3.3-65.6,6.5-98.4,9.8c0,0.2,0,0.5,0,0.7c31.3,5.4,62.5,10.8,93.8,16.3c0,0.2,0,0.5,0,0.7
			c-32.9,3.3-65.8,6.5-98.8,9.8c0,0.2,0,0.5,0,0.7c31.2,5.4,62.4,10.8,93.7,16.3c0,0.3,0,0.5,0,0.8c-32.8,3.3-65.6,6.5-98.3,9.8
			c0,0.2,0,0.5,0,0.7c31.4,5.4,62.8,10.9,94.2,16.3c0,0.2,0,0.4,0,0.6c-33,3.3-66,6.6-99,9.9c0,0.2,0,0.5,0,0.7
			c31.5,5.5,63,10.9,94.6,16.4c0,0.2,0,0.3,0,0.5c-33.2,3.3-66.4,6.6-99.6,9.9c0,0.2,0,0.5,0,0.7c31.5,5.5,63,10.9,94.5,16.4
			c0,0.2,0,0.4,0.1,0.6c-33.1,3.3-66.3,6.6-99.4,9.9c1.6,0.8,3.1,1.2,4.7,1.4c23,4,46.1,7.8,69,12.1c17.8,3.3,35.5,5.7,53.7,4.9
			c10.6-0.5,21.3-0.1,31.9-0.1C230.8,408.4,231.8,408.4,233,408.4z"/>
		<path fill="#FFFFFF" d="M85.6,0.6c-4.9,1-9.9,1.5-14.7,2.9c-37.1,10.7-60,34.9-68.6,72.6c-0.7,3.1-1.2,6.3-1.7,9.5
			c0-28.3,0-56.6,0-85C28.9,0.6,57.2,0.6,85.6,0.6z"/>
		<path fill="#FFFFFF" d="M511.6,85.6c-1-4.9-1.5-9.9-2.9-14.7c-10.7-37.1-35-60-72.6-68.6c-3.1-0.7-6.3-1.1-9.4-1.7
			c28.3,0,56.6,0,85,0C511.6,28.9,511.6,57.2,511.6,85.6z"/>
		<path fill="#FFFFFF" d="M0.6,426.6c1,4.9,1.5,9.9,2.9,14.7c10.8,37.1,35,60,72.6,68.6c3.1,0.7,6.3,1.1,9.4,1.7
			c-28.3,0-56.7,0-85,0C0.6,483.3,0.6,455,0.6,426.6z"/>
		<path fill="#FFFFFF" d="M426.6,511.6c4.9-1,9.9-1.5,14.7-2.9c37.1-10.7,60-34.9,68.6-72.6c0.7-3.1,1.2-6.3,1.7-9.5
			c0,28.3,0,56.7,0,85C483.3,511.6,455,511.6,426.6,511.6z"/>
		<path fill="#FFFFFF" d="M233,408.4c-1.2,0-2.2,0-3.2,0c-10.6,0-21.3-0.4-31.9,0.1c-18.2,0.8-35.9-1.6-53.7-4.9
			c-23-4.3-46-8.1-69-12.1c-1.6-0.3-3.1-0.6-4.7-1.4c33.1-3.3,66.3-6.6,99.4-9.9c0-0.2,0-0.4-0.1-0.6c-31.5-5.5-63-10.9-94.5-16.4
			c0-0.2,0-0.5,0-0.7c33.2-3.3,66.4-6.6,99.6-9.9c0-0.2,0-0.3,0-0.5c-31.5-5.5-63-10.9-94.6-16.4c0-0.2,0-0.5,0-0.7
			c33-3.3,66-6.6,99-9.9c0-0.2,0-0.4,0-0.6c-31.4-5.4-62.8-10.9-94.2-16.3c0-0.2,0-0.5,0-0.7c32.8-3.3,65.6-6.5,98.3-9.8
			c0-0.3,0-0.5,0-0.8c-31.2-5.4-62.4-10.8-93.7-16.3c0-0.2,0-0.5,0-0.7c32.9-3.3,65.8-6.5,98.8-9.8c0-0.2,0-0.5,0-0.7
			c-31.3-5.4-62.5-10.8-93.8-16.3c0-0.2,0-0.5,0-0.7c32.8-3.3,65.6-6.5,98.4-9.8c0-0.3,0-0.5,0-0.8c-31.2-5.4-62.5-10.8-93.7-16.3
			c0-0.2,0-0.4,0-0.7c32.9-3.3,65.9-6.5,98.8-9.8c0-0.2,0-0.5,0-0.7c-31.3-5.4-62.6-10.9-93.9-16.3c0-0.2,0-0.5,0-0.7
			c33.1-3.3,66.2-6.6,99.3-9.9c0-0.2,0-0.4,0-0.6c-31.5-5.5-62.9-10.9-94.4-16.4c0-0.2,0-0.5,0-0.7c33.2-3.3,66.4-6.6,99.6-9.9
			c0-0.2,0-0.3,0-0.5c-31.6-5.5-63.1-10.9-94.7-16.4c0-0.2,0-0.5,0-0.7c32.9-3.3,65.7-6.6,98.6-9.8c0-0.2,0-0.4,0.1-0.6
			c-31.4-5.5-62.8-10.9-94.2-16.4c0-0.2,0-0.5,0-0.7c2-0.2,4-0.3,6-0.5c8-0.8,16.1-1.7,24.1-2.5c4.8-0.5,9.5-0.9,14.3-1.3
			c7.9-0.8,15.9-1.6,23.8-2.4c6.3-0.6,12.7-1.2,19-1.9c3.7-0.4,7.4-1,11.2-1.3c3.7-0.4,7.4-0.8,11-0.8c39.1,0,78.1-0.1,117.2,0
			c17.9,0,35.4,2.9,51.7,10.8c28.2,13.6,42.8,36.4,43.5,67.5c1,45.2-22.6,91.7-79.4,110.6c-17.6,5.8-35.7,8.1-54.1,8.1
			c-17.5-0.1-35,0-52.5,0c-2,0-2.9,0.4-3.3,2.7C245.4,338.5,239.2,373.2,233,408.4z M260.8,250.4c1.4,0,2.4,0,3.4,0
			c16.7,0,33.4,0,50.2,0c4.5,0,8.9-0.1,13.4-0.6c16.1-2,30.1-8.1,39.3-22.2c8.2-12.6,11-26.6,8.8-41.4c-1.9-13.6-9.6-23-22.4-27.8
			c-4.6-1.7-9.6-2.9-14.4-3c-20.2-0.4-40.5-0.2-60.7-0.2c-0.2,0-0.4,0.1-0.9,0.3C272.1,186.9,266.5,218.5,260.8,250.4z"/>
		<path d="M260.8,250.4c5.6-31.9,11.2-63.6,16.8-95c0.5-0.2,0.7-0.3,0.9-0.3c20.2,0,40.5-0.1,60.7,0.2c4.8,0.1,9.8,1.3,14.4,3
			c12.8,4.8,20.4,14.2,22.4,27.8c2.1,14.8-0.7,28.8-8.8,41.4c-9.2,14.1-23.2,20.2-39.3,22.2c-4.4,0.5-8.9,0.6-13.4,0.6
			c-16.7,0.1-33.4,0-50.2,0C263.3,250.4,262.2,250.4,260.8,250.4z"/>
	</g>
</g>
</svg>
