<?xml version="1.0" encoding="UTF-8" ?>
<!DOCTYPE svg PUBLIC "-//W3C//DTD SVG 1.1//EN" "http://www.w3.org/Graphics/SVG/1.1/DTD/svg11.dtd">
<svg width="512pt" height="512pt" viewBox="0 0 512 512" version="1.1" xmlns="http://www.w3.org/2000/svg">
<path fill="#fefefe" d=" M 0.00 0.00 L 512.00 0.00 L 512.00 512.00 L 0.00 512.00 L 0.00 0.00 Z" />
<path fill="#070707" d=" M 96.50 32.73 C 99.97 32.25 103.47 31.99 106.97 32.00 C 206.63 32.01 306.28 31.99 405.93 32.01 C 422.68 32.15 439.29 38.16 452.25 48.75 C 469.36 62.50 479.87 84.04 479.99 106.01 C 480.01 205.67 479.99 305.32 480.00 404.98 C 480.06 420.84 474.88 436.66 465.45 449.41 C 451.84 468.15 429.16 479.89 405.98 480.00 C 306.00 480.00 206.01 480.00 106.03 480.00 C 86.91 479.85 68.02 471.97 54.45 458.50 C 40.44 444.87 32.16 425.57 32.01 406.02 C 31.99 306.32 32.01 206.63 32.00 106.93 C 31.94 88.91 38.70 70.97 50.68 57.49 C 62.35 44.12 78.91 35.13 96.50 32.73 Z" />
<path fill="#fefefe" d=" M 95.95 134.97 C 113.87 135.03 131.79 134.84 149.70 135.07 C 161.20 185.04 172.95 234.95 184.54 284.89 C 185.84 290.20 186.89 295.57 188.37 300.83 C 189.38 297.98 190.14 295.06 190.84 292.12 C 204.22 239.74 217.63 187.36 231.00 134.97 C 247.74 134.96 264.49 134.97 281.23 134.97 C 292.09 178.61 302.92 222.25 313.76 265.90 C 316.99 278.22 319.59 290.72 323.22 302.93 C 336.69 247.00 349.95 191.01 363.26 135.04 C 380.82 134.90 398.38 134.95 415.94 135.02 C 394.14 215.99 372.25 296.94 350.53 377.94 C 332.73 378.12 314.93 378.04 297.12 377.98 C 283.72 323.94 270.16 269.94 256.74 215.91 C 256.39 214.70 255.91 213.53 255.42 212.38 C 241.81 267.55 228.29 322.75 214.79 377.95 C 196.65 378.08 178.50 378.08 160.36 377.95 C 138.96 296.94 117.40 215.97 95.95 134.97 Z" />
</svg>
